<svg width="22" height="22" viewBox="0 0 22 22" fill="none" xmlns="http://www.w3.org/2000/svg">
<g clip-path="url(#clip0_26_187)">
<mask id="mask0_26_187" style="mask-type:luminance" maskUnits="userSpaceOnUse" x="0" y="0" width="22" height="22">
<path d="M22 0H0V22H22V0Z" fill="white"/>
</mask>
<g mask="url(#mask0_26_187)">
<path d="M16.6283 19.8181C15.8216 20.0565 14.8683 20.1665 13.75 20.1665H8.24992C7.13158 20.1665 6.17825 20.0565 5.37158 19.8181C5.57325 17.4348 8.02075 15.5555 11 15.5555C13.9791 15.5555 16.4266 17.4348 16.6283 19.8181Z" stroke="#B2B2B2" stroke-linecap="round" stroke-linejoin="round"/>
<path d="M13.75 1.83331H8.25004C3.66671 1.83331 1.83337 3.66665 1.83337 8.24998V13.75C1.83337 17.215 2.87837 19.1125 5.37171 19.8183C5.57337 17.435 8.02087 15.5558 11 15.5558C13.9792 15.5558 16.4267 17.435 16.6284 19.8183C19.1217 19.1125 20.1667 17.215 20.1667 13.75V8.24998C20.1667 3.66665 18.3334 1.83331 13.75 1.83331ZM11 12.9891C9.18504 12.9891 7.71837 11.5133 7.71837 9.69831C7.71837 7.88333 9.18504 6.41665 11 6.41665C12.815 6.41665 14.2817 7.88333 14.2817 9.69831C14.2817 11.5133 12.815 12.9891 11 12.9891Z" stroke="#B2B2B2" stroke-linecap="round" stroke-linejoin="round"/>
<path d="M14.2816 9.69829C14.2816 11.5133 12.8149 12.9891 10.9999 12.9891C9.18491 12.9891 7.71826 11.5133 7.71826 9.69829C7.71826 7.88331 9.18491 6.41663 10.9999 6.41663C12.8149 6.41663 14.2816 7.88331 14.2816 9.69829Z" stroke="#B2B2B2" stroke-linecap="round" stroke-linejoin="round"/>
</g>
</g>
<defs>
<clipPath id="clip0_26_187">
<rect width="22" height="22" fill="white"/>
</clipPath>
</defs>
</svg>
